<mxfile host="app.diagrams.net" modified="2024-04-23T11:09:47.670Z" agent="Mozilla/5.0 (Windows NT 10.0; Win64; x64) AppleWebKit/537.36 (KHTML, like Gecko) Chrome/124.0.0.0 Safari/537.36" etag="8dm0csyI3tM6tyfXdgtI" version="24.2.8" type="device">
  <diagram id="C5RBs43oDa-KdzZeNtuy" name="Page-1">
    <mxGraphModel dx="2112" dy="763" grid="1" gridSize="10" guides="1" tooltips="1" connect="1" arrows="1" fold="1" page="1" pageScale="1" pageWidth="827" pageHeight="1169" math="0" shadow="0">
      <root>
        <mxCell id="WIyWlLk6GJQsqaUBKTNV-0" />
        <mxCell id="WIyWlLk6GJQsqaUBKTNV-1" parent="WIyWlLk6GJQsqaUBKTNV-0" />
        <mxCell id="Yae4oDO0-uGVbethglpQ-45" value="" style="group" parent="WIyWlLk6GJQsqaUBKTNV-1" vertex="1" connectable="0">
          <mxGeometry x="296" y="640" width="1080" height="440" as="geometry" />
        </mxCell>
        <mxCell id="Yae4oDO0-uGVbethglpQ-46" value="" style="group" parent="Yae4oDO0-uGVbethglpQ-45" vertex="1" connectable="0">
          <mxGeometry x="147.85714285714286" width="932.1428571428572" height="440" as="geometry" />
        </mxCell>
        <mxCell id="Yae4oDO0-uGVbethglpQ-47" value="" style="rounded=0;whiteSpace=wrap;html=1;" parent="Yae4oDO0-uGVbethglpQ-46" vertex="1">
          <mxGeometry width="932.1428571428572" height="440" as="geometry" />
        </mxCell>
        <mxCell id="Yae4oDO0-uGVbethglpQ-48" value="Caching module" style="text;html=1;align=center;verticalAlign=middle;whiteSpace=wrap;rounded=0;" parent="Yae4oDO0-uGVbethglpQ-46" vertex="1">
          <mxGeometry x="2.17" width="147.83" height="20" as="geometry" />
        </mxCell>
        <mxCell id="Yae4oDO0-uGVbethglpQ-14" value="&lt;p style=&quot;margin:0px;margin-top:4px;text-align:center;&quot;&gt;&lt;b&gt;CacheImpl&lt;/b&gt;&lt;/p&gt;&lt;hr size=&quot;1&quot;&gt;&lt;p style=&quot;margin:0 0 0 4px;line-height:1.6;&quot;&gt;&lt;u&gt;- instance: Caching&lt;/u&gt;&lt;br&gt;- cache: Map&amp;lt;String, List&amp;lt;String&amp;gt;&amp;gt;&lt;/p&gt;&lt;hr size=&quot;1&quot;&gt;&lt;p style=&quot;margin:0 0 0 4px;line-height:1.6;&quot;&gt;- CacheImpl():&lt;br&gt;&lt;u&gt;+ getInstance(): Caching&lt;/u&gt;&lt;br&gt;+ cacheResult(key: String, value: List&amp;lt;String&amp;gt;): void&lt;br&gt;+ get(key: String): List&amp;lt;String&amp;gt;&lt;br&gt;+ clear(): void&lt;/p&gt;&lt;p style=&quot;margin:0 0 0 4px;line-height:1.6;&quot;&gt;&lt;br&gt;&lt;/p&gt;" style="verticalAlign=top;align=left;overflow=fill;fontSize=14;fontFamily=Helvetica;html=1;rounded=0;shadow=0;comic=0;labelBackgroundColor=none;strokeWidth=1;" parent="Yae4oDO0-uGVbethglpQ-46" vertex="1">
          <mxGeometry x="566.1428571428571" y="215" width="337" height="205" as="geometry" />
        </mxCell>
        <mxCell id="Yae4oDO0-uGVbethglpQ-40" value="" style="group" parent="WIyWlLk6GJQsqaUBKTNV-1" vertex="1" connectable="0">
          <mxGeometry x="-670" y="310" width="1080" height="990" as="geometry" />
        </mxCell>
        <mxCell id="Yae4oDO0-uGVbethglpQ-44" value="" style="group" parent="Yae4oDO0-uGVbethglpQ-40" vertex="1" connectable="0">
          <mxGeometry x="147.85714285714286" width="932.1428571428572" height="990" as="geometry" />
        </mxCell>
        <mxCell id="Yae4oDO0-uGVbethglpQ-41" value="" style="rounded=0;whiteSpace=wrap;html=1;" parent="Yae4oDO0-uGVbethglpQ-44" vertex="1">
          <mxGeometry width="932.1428571428572" height="990" as="geometry" />
        </mxCell>
        <mxCell id="Yae4oDO0-uGVbethglpQ-42" value="Booking system module" style="text;html=1;align=center;verticalAlign=middle;whiteSpace=wrap;rounded=0;" parent="Yae4oDO0-uGVbethglpQ-44" vertex="1">
          <mxGeometry x="2.17" width="147.83" height="45" as="geometry" />
        </mxCell>
        <mxCell id="Yae4oDO0-uGVbethglpQ-39" value="" style="group" parent="WIyWlLk6GJQsqaUBKTNV-1" vertex="1" connectable="0">
          <mxGeometry x="41" y="1330" width="430" height="280" as="geometry" />
        </mxCell>
        <mxCell id="Yae4oDO0-uGVbethglpQ-37" value="" style="rounded=0;whiteSpace=wrap;html=1;" parent="Yae4oDO0-uGVbethglpQ-39" vertex="1">
          <mxGeometry width="430" height="280" as="geometry" />
        </mxCell>
        <mxCell id="Yae4oDO0-uGVbethglpQ-38" value="ExternalClientModule" style="text;html=1;align=center;verticalAlign=middle;whiteSpace=wrap;rounded=0;" parent="Yae4oDO0-uGVbethglpQ-39" vertex="1">
          <mxGeometry x="1" width="125" height="30" as="geometry" />
        </mxCell>
        <mxCell id="Yae4oDO0-uGVbethglpQ-18" value="&lt;p style=&quot;margin:0px;margin-top:4px;text-align:center;&quot;&gt;&lt;b&gt;ExternalClient&lt;/b&gt;&lt;/p&gt;&lt;hr size=&quot;1&quot;/&gt;&lt;p style=&quot;margin:0 0 0 4px;line-height:1.6;&quot;&gt;+ ExternalClient(): &lt;/p&gt;&lt;hr size=&quot;1&quot;/&gt;&lt;p style=&quot;margin:0 0 0 4px;line-height:1.6;&quot;&gt;+ main(String[]): void&lt;/p&gt;" style="verticalAlign=top;align=left;overflow=fill;fontSize=14;fontFamily=Helvetica;html=1;rounded=0;shadow=0;comic=0;labelBackgroundColor=none;strokeWidth=1;" parent="Yae4oDO0-uGVbethglpQ-39" vertex="1">
          <mxGeometry x="135" y="92.5" width="164" height="95" as="geometry" />
        </mxCell>
        <mxCell id="Yae4oDO0-uGVbethglpQ-15" value="&lt;p style=&quot;margin:0px;margin-top:4px;text-align:center;&quot;&gt;&lt;i&gt;&amp;lt;&amp;lt;interface&amp;gt;&amp;gt;&lt;/i&gt;&lt;br&gt;&lt;b&gt;Caching&lt;/b&gt;&lt;/p&gt;&lt;hr size=&quot;1&quot;&gt;&lt;p style=&quot;margin:0 0 0 4px;line-height:1.6;&quot;&gt;+ cacheResult(key: String, value: List&amp;lt;String&amp;gt;): void&lt;br&gt;+ get(key: String): List&amp;lt;String&amp;gt;&lt;br&gt;+ clear(): void&lt;/p&gt;" style="verticalAlign=top;align=left;overflow=fill;fontSize=14;fontFamily=Helvetica;html=1;rounded=0;shadow=0;comic=0;labelBackgroundColor=none;strokeWidth=1;" parent="WIyWlLk6GJQsqaUBKTNV-1" vertex="1">
          <mxGeometry x="693" y="668" width="347" height="139" as="geometry" />
        </mxCell>
        <mxCell id="Yae4oDO0-uGVbethglpQ-16" value="&lt;p style=&quot;margin:0px;margin-top:4px;text-align:center;&quot;&gt;&lt;b&gt;CachingPort&lt;/b&gt;&lt;/p&gt;&lt;hr size=&quot;1&quot;&gt;&lt;p style=&quot;margin:0 0 0 4px;line-height:1.6;&quot;&gt;- cache: Caching&lt;/p&gt;&lt;hr size=&quot;1&quot;&gt;&lt;p style=&quot;margin:0 0 0 4px;line-height:1.6;&quot;&gt;&amp;nbsp;# CachingPort(cache: Caching):&lt;br&gt;+ cacheResult(key: String, value : List&amp;lt;String&amp;gt;): void&lt;br&gt;+ get(key: String): List&amp;lt;String&amp;gt;&lt;br&gt;+ clear(): void&lt;/p&gt;" style="verticalAlign=top;align=left;overflow=fill;fontSize=14;fontFamily=Helvetica;html=1;rounded=0;shadow=0;comic=0;labelBackgroundColor=none;strokeWidth=1;" parent="WIyWlLk6GJQsqaUBKTNV-1" vertex="1">
          <mxGeometry x="540" y="855" width="340" height="175" as="geometry" />
        </mxCell>
        <mxCell id="Yae4oDO0-uGVbethglpQ-17" value="&lt;p style=&quot;margin:0px;margin-top:4px;text-align:center;&quot;&gt;&lt;b&gt;DBAccess&lt;/b&gt;&lt;/p&gt;&lt;hr size=&quot;1&quot;&gt;&lt;p style=&quot;margin:0 0 0 4px;line-height:1.6;&quot;&gt;- dbAccess: DBAccess&lt;/p&gt;&lt;hr size=&quot;1&quot;&gt;&lt;p style=&quot;margin:0 0 0 4px;line-height:1.6;&quot;&gt;+ DBAccess():&lt;br&gt;+ openConnection(): void&lt;br&gt;+ getObjects(type: int, value: String): List&amp;lt;String&amp;gt;&lt;br&gt;+ main(String[]): void&lt;br&gt;+ closeConnection(): void&lt;/p&gt;" style="verticalAlign=top;align=left;overflow=fill;fontSize=14;fontFamily=Helvetica;html=1;rounded=0;shadow=0;comic=0;labelBackgroundColor=none;strokeWidth=1;" parent="WIyWlLk6GJQsqaUBKTNV-1" vertex="1">
          <mxGeometry x="-371" y="1090" width="311" height="190" as="geometry" />
        </mxCell>
        <mxCell id="Yae4oDO0-uGVbethglpQ-35" style="edgeStyle=orthogonalEdgeStyle;rounded=0;orthogonalLoop=1;jettySize=auto;html=1;entryX=0.5;entryY=1;entryDx=0;entryDy=0;endArrow=open;endFill=0;" parent="WIyWlLk6GJQsqaUBKTNV-1" source="Yae4oDO0-uGVbethglpQ-18" target="Yae4oDO0-uGVbethglpQ-22" edge="1">
          <mxGeometry relative="1" as="geometry" />
        </mxCell>
        <mxCell id="Yae4oDO0-uGVbethglpQ-19" value="&lt;p style=&quot;margin:0px;margin-top:4px;text-align:center;&quot;&gt;&lt;b&gt;Hotel&lt;/b&gt;&lt;/p&gt;&lt;hr size=&quot;1&quot;&gt;&lt;p style=&quot;margin:0 0 0 4px;line-height:1.6;&quot;&gt;+ Hotel(String, String, String): &lt;/p&gt;&lt;hr size=&quot;1&quot;&gt;&lt;p style=&quot;margin:0 0 0 4px;line-height:1.6;&quot;&gt;- id: String&lt;br&gt;- name: String&lt;br&gt;- location: String&lt;/p&gt;&lt;hr size=&quot;1&quot;&gt;&lt;p style=&quot;margin:0 0 0 4px;line-height:1.6;&quot;&gt;+ toString(): String&lt;/p&gt;" style="verticalAlign=top;align=left;overflow=fill;fontSize=14;fontFamily=Helvetica;html=1;rounded=0;shadow=0;comic=0;labelBackgroundColor=none;strokeWidth=1;" parent="WIyWlLk6GJQsqaUBKTNV-1" vertex="1">
          <mxGeometry x="-182" y="350" width="223" height="200" as="geometry" />
        </mxCell>
        <mxCell id="vAu8KOzIKtH2uKeTOmkB-1" style="edgeStyle=orthogonalEdgeStyle;rounded=0;orthogonalLoop=1;jettySize=auto;html=1;endArrow=open;endFill=0;" edge="1" parent="WIyWlLk6GJQsqaUBKTNV-1" source="Yae4oDO0-uGVbethglpQ-20" target="Yae4oDO0-uGVbethglpQ-17">
          <mxGeometry relative="1" as="geometry" />
        </mxCell>
        <mxCell id="Yae4oDO0-uGVbethglpQ-20" value="&lt;p style=&quot;margin:0px;margin-top:4px;text-align:center;&quot;&gt;&lt;b&gt;HotelRetrieval&lt;/b&gt;&lt;/p&gt;&lt;hr size=&quot;1&quot;&gt;&lt;p style=&quot;margin:0 0 0 4px;line-height:1.6;&quot;&gt;- dbAccess: DBAccess&lt;/p&gt;&lt;hr size=&quot;1&quot;&gt;&lt;p style=&quot;margin:0 0 0 4px;line-height:1.6;&quot;&gt;+ HotelRetrieval():&lt;br&gt;+ closeSession(): void&lt;br&gt;+ openSession(): void&lt;br&gt;+ getHotelByName(name: String): Hotel[]&lt;/p&gt;" style="verticalAlign=top;align=left;overflow=fill;fontSize=14;fontFamily=Helvetica;html=1;rounded=0;shadow=0;comic=0;labelBackgroundColor=none;strokeWidth=1;" parent="WIyWlLk6GJQsqaUBKTNV-1" vertex="1">
          <mxGeometry x="-361" y="869" width="271" height="171" as="geometry" />
        </mxCell>
        <mxCell id="Yae4oDO0-uGVbethglpQ-36" style="edgeStyle=orthogonalEdgeStyle;rounded=0;orthogonalLoop=1;jettySize=auto;html=1;entryX=0.5;entryY=1;entryDx=0;entryDy=0;dashed=1;endArrow=open;endFill=0;" parent="WIyWlLk6GJQsqaUBKTNV-1" source="Yae4oDO0-uGVbethglpQ-21" target="Yae4oDO0-uGVbethglpQ-19" edge="1">
          <mxGeometry relative="1" as="geometry">
            <Array as="points">
              <mxPoint x="-70" y="620" />
              <mxPoint x="-70" y="620" />
            </Array>
          </mxGeometry>
        </mxCell>
        <mxCell id="Yae4oDO0-uGVbethglpQ-21" value="&lt;p style=&quot;margin:0px;margin-top:4px;text-align:center;&quot;&gt;&lt;i&gt;&amp;lt;&amp;lt;interface&amp;gt;&amp;gt;&lt;/i&gt;&lt;br&gt;&lt;b&gt;HotelSearch&lt;/b&gt;&lt;/p&gt;&lt;hr size=&quot;1&quot;&gt;&lt;p style=&quot;margin:0 0 0 4px;line-height:1.6;&quot;&gt;+ closeSession(): void&lt;br&gt;+ getHotelByName(name: String): Hotel[]&lt;br&gt;+ openSession(): void&lt;/p&gt;" style="verticalAlign=top;align=left;overflow=fill;fontSize=14;fontFamily=Helvetica;html=1;rounded=0;shadow=0;comic=0;labelBackgroundColor=none;strokeWidth=1;" parent="WIyWlLk6GJQsqaUBKTNV-1" vertex="1">
          <mxGeometry x="-195" y="673" width="275" height="139" as="geometry" />
        </mxCell>
        <mxCell id="Yae4oDO0-uGVbethglpQ-33" style="edgeStyle=orthogonalEdgeStyle;rounded=0;orthogonalLoop=1;jettySize=auto;html=1;entryX=0.5;entryY=1;entryDx=0;entryDy=0;endArrow=open;endFill=0;" parent="WIyWlLk6GJQsqaUBKTNV-1" source="Yae4oDO0-uGVbethglpQ-22" target="Yae4oDO0-uGVbethglpQ-23" edge="1">
          <mxGeometry relative="1" as="geometry" />
        </mxCell>
        <mxCell id="Yae4oDO0-uGVbethglpQ-49" style="edgeStyle=orthogonalEdgeStyle;rounded=0;orthogonalLoop=1;jettySize=auto;html=1;endArrow=open;endFill=0;" parent="WIyWlLk6GJQsqaUBKTNV-1" source="Yae4oDO0-uGVbethglpQ-22" edge="1">
          <mxGeometry relative="1" as="geometry">
            <Array as="points">
              <mxPoint x="257" y="1060" />
              <mxPoint x="370" y="1060" />
              <mxPoint x="370" y="929" />
              <mxPoint x="530" y="929" />
              <mxPoint x="530" y="930" />
              <mxPoint x="540" y="930" />
            </Array>
            <mxPoint x="540" y="930" as="targetPoint" />
          </mxGeometry>
        </mxCell>
        <mxCell id="Yae4oDO0-uGVbethglpQ-22" value="&lt;p style=&quot;margin:0px;margin-top:4px;text-align:center;&quot;&gt;&lt;b&gt;Port&lt;/b&gt;&lt;/p&gt;&lt;hr size=&quot;1&quot;&gt;&lt;p style=&quot;margin:0 0 0 4px;line-height:1.6;&quot;&gt;+ Port(): &lt;/p&gt;&lt;hr size=&quot;1&quot;&gt;&lt;p style=&quot;margin:0 0 0 4px;line-height:1.6;&quot;&gt;+ buildSearchPort(): SearchPort&lt;br&gt;+ buildCachingPort(): CachingPort&lt;/p&gt;" style="verticalAlign=top;align=left;overflow=fill;fontSize=14;fontFamily=Helvetica;html=1;rounded=0;shadow=0;comic=0;labelBackgroundColor=none;strokeWidth=1;" parent="WIyWlLk6GJQsqaUBKTNV-1" vertex="1">
          <mxGeometry x="135" y="1100" width="244" height="121" as="geometry" />
        </mxCell>
        <mxCell id="vAu8KOzIKtH2uKeTOmkB-0" value="" style="edgeStyle=orthogonalEdgeStyle;rounded=0;orthogonalLoop=1;jettySize=auto;html=1;endArrow=open;endFill=0;" edge="1" parent="WIyWlLk6GJQsqaUBKTNV-1" source="Yae4oDO0-uGVbethglpQ-23" target="Yae4oDO0-uGVbethglpQ-20">
          <mxGeometry relative="1" as="geometry">
            <Array as="points">
              <mxPoint x="-50" y="943" />
              <mxPoint x="-50" y="943" />
            </Array>
          </mxGeometry>
        </mxCell>
        <mxCell id="Yae4oDO0-uGVbethglpQ-23" value="&lt;p style=&quot;margin:0px;margin-top:4px;text-align:center;&quot;&gt;&lt;b&gt;SearchPort&lt;/b&gt;&lt;/p&gt;&lt;hr size=&quot;1&quot;&gt;&lt;p style=&quot;margin:0 0 0 4px;line-height:1.6;&quot;&gt;- hotelSearch: HotelSearch&lt;br&gt;&lt;/p&gt;&lt;hr size=&quot;1&quot;&gt;&lt;p style=&quot;margin:0 0 0 4px;line-height:1.6;&quot;&gt;# SearchPort(hotelRetrieval: HotelRetrieval):&lt;br&gt;+ getHotelByName(name: String): Hotel[]&lt;br&gt;+ openSession(): void&lt;br&gt;+ closeSession(): void&lt;/p&gt;" style="verticalAlign=top;align=left;overflow=fill;fontSize=14;fontFamily=Helvetica;html=1;rounded=0;shadow=0;comic=0;labelBackgroundColor=none;strokeWidth=1;" parent="WIyWlLk6GJQsqaUBKTNV-1" vertex="1">
          <mxGeometry x="-30" y="869" width="290" height="171" as="geometry" />
        </mxCell>
        <mxCell id="Yae4oDO0-uGVbethglpQ-24" value="" style="html=1;rounded=1;edgeStyle=orthogonalEdgeStyle;dashed=1;startArrow=none;endArrow=block;endSize=12;strokeColor=#000000;exitX=0.500;exitY=0.000;exitDx=0;exitDy=0;entryX=0.500;entryY=1.000;entryDx=0;entryDy=0;endFill=0;" parent="WIyWlLk6GJQsqaUBKTNV-1" source="Yae4oDO0-uGVbethglpQ-14" target="Yae4oDO0-uGVbethglpQ-15" edge="1">
          <mxGeometry width="50" height="50" relative="1" as="geometry">
            <Array as="points">
              <mxPoint x="814" y="831" />
              <mxPoint x="604" y="831" />
            </Array>
          </mxGeometry>
        </mxCell>
        <mxCell id="Yae4oDO0-uGVbethglpQ-25" value="" style="html=1;rounded=1;edgeStyle=orthogonalEdgeStyle;dashed=1;startArrow=none;endArrow=block;endSize=12;strokeColor=#000000;exitX=0.500;exitY=0.000;exitDx=0;exitDy=0;entryX=0.500;entryY=1.000;entryDx=0;entryDy=0;endFill=0;" parent="WIyWlLk6GJQsqaUBKTNV-1" source="Yae4oDO0-uGVbethglpQ-16" target="Yae4oDO0-uGVbethglpQ-15" edge="1">
          <mxGeometry width="50" height="50" relative="1" as="geometry" />
        </mxCell>
        <mxCell id="Yae4oDO0-uGVbethglpQ-26" value="" style="html=1;rounded=1;edgeStyle=orthogonalEdgeStyle;dashed=1;startArrow=none;endArrow=block;endSize=12;strokeColor=#000000;exitX=0.577;exitY=0.000;exitDx=0;exitDy=0;endFill=0;" parent="WIyWlLk6GJQsqaUBKTNV-1" source="Yae4oDO0-uGVbethglpQ-20" target="Yae4oDO0-uGVbethglpQ-21" edge="1">
          <mxGeometry width="50" height="50" relative="1" as="geometry">
            <Array as="points">
              <mxPoint x="-217" y="837" />
              <mxPoint x="-57" y="837" />
            </Array>
            <mxPoint x="-50" y="820" as="targetPoint" />
          </mxGeometry>
        </mxCell>
        <mxCell id="Yae4oDO0-uGVbethglpQ-27" value="" style="html=1;rounded=1;edgeStyle=orthogonalEdgeStyle;dashed=1;startArrow=none;endArrow=block;endSize=12;strokeColor=#000000;exitX=0.500;exitY=0.000;exitDx=0;exitDy=0;entryX=0.500;entryY=1.000;entryDx=0;entryDy=0;endFill=0;" parent="WIyWlLk6GJQsqaUBKTNV-1" source="Yae4oDO0-uGVbethglpQ-23" target="Yae4oDO0-uGVbethglpQ-21" edge="1">
          <mxGeometry width="50" height="50" relative="1" as="geometry">
            <Array as="points">
              <mxPoint x="94" y="837" />
              <mxPoint x="-70" y="837" />
            </Array>
          </mxGeometry>
        </mxCell>
      </root>
    </mxGraphModel>
  </diagram>
</mxfile>
